<svg width="64" height="98" viewBox="0 0 64 98" fill="none" xmlns="http://www.w3.org/2000/svg">
<path d="M18.1675 12.5759L18.521 12.2223C18.6703 12.3716 18.7887 12.5488 18.8695 12.7438C18.9503 12.9388 18.9918 13.1479 18.9918 13.359C18.9918 13.5701 18.9503 13.7791 18.8695 13.9741C18.7887 14.1691 18.6703 14.3464 18.521 14.4956C18.3717 14.6449 18.1945 14.7633 17.9995 14.8441C17.8045 14.9249 17.5954 14.9664 17.3843 14.9664C17.1733 14.9664 16.9642 14.9248 16.7692 14.8441C16.5742 14.7633 16.397 14.6449 16.2477 14.4956L16.2477 14.4956M18.1675 12.5759L16.6013 14.1421L16.2477 14.4956M18.1675 12.5759L18.521 12.2223L16.007 9.70824L16.0069 9.70824M18.1675 12.5759L16.0069 9.70824M16.2477 14.4956L13.7337 11.9816M16.2477 14.4956L13.7337 11.9816M13.7337 11.9816C13.7337 11.9816 13.7337 11.9816 13.7337 11.9816M13.7337 11.9816L13.7337 11.9816M16.0069 9.70824C15.7055 9.40678 15.2966 9.23742 14.8703 9.23743C14.444 9.23743 14.0351 9.40679 13.7336 9.70825L14.0872 10.0618M16.0069 9.70824L14.0872 10.0618M14.0872 10.0618L13.7336 9.70825C13.4322 10.0097 13.2628 10.4186 13.2628 10.8449M14.0872 10.0618L13.2628 10.8449M13.2628 10.8449C13.2628 11.2712 13.4322 11.6801 13.7337 11.9816M13.2628 10.8449L13.7337 11.9816" fill="#285A43" stroke="#285A43"/>
<path d="M44.9349 12.2226L44.9349 12.2226L46.0715 14.4665L46.0709 14.9665C46.0711 14.9665 46.0712 14.9665 46.0714 14.9665C46.2826 14.9667 46.4917 14.9252 46.6868 14.8443C46.8819 14.7635 47.0591 14.645 47.2083 14.4955C47.2083 14.4955 47.2083 14.4955 47.2084 14.4955C47.2085 14.4953 47.2086 14.4952 47.2087 14.4951L49.7205 11.9829C49.871 11.8343 49.9907 11.6576 50.0729 11.4627C50.1552 11.2672 50.1981 11.0572 50.1989 10.8451C50.1998 10.6329 50.1586 10.4226 50.0778 10.2264C49.997 10.0302 49.8781 9.85195 49.7281 9.70192C49.578 9.5519 49.3998 9.43306 49.2035 9.35227C49.0073 9.27148 48.7971 9.23034 48.5849 9.23121C48.3727 9.23209 48.1628 9.27498 47.9672 9.35739C47.7724 9.43952 47.5957 9.55928 47.4472 9.7098L44.9349 12.2226Z" fill="#285A43" stroke="#285A43"/>
<path d="M52.0128 29.3099H57.3231C57.7494 29.3099 58.1582 29.1406 58.4597 28.8391C58.7611 28.5377 58.9305 28.1288 58.9305 27.7025C58.9305 27.2762 58.7611 26.8673 58.4597 26.5659L58.1061 26.9195L58.4597 26.5659C58.1582 26.2644 57.7494 26.0951 57.3231 26.0951H52.0128C51.5865 26.0951 51.1776 26.2644 50.8762 26.5659C50.5747 26.8673 50.4054 27.2762 50.4054 27.7025C50.4054 28.1288 50.5747 28.5377 50.8762 28.8391C51.1776 29.1406 51.5865 29.3099 52.0128 29.3099Z" fill="#285A43" stroke="#285A43"/>
<path d="M6.13278 29.3099H11.443C11.8694 29.3099 12.2782 29.1406 12.5797 28.8391C12.8811 28.5377 13.0505 28.1288 13.0505 27.7025C13.0505 27.2762 12.8811 26.8673 12.5797 26.5659L12.2261 26.9195L12.5797 26.5659C12.2782 26.2644 11.8694 26.0951 11.443 26.0951H6.13278C5.70647 26.0951 5.29761 26.2644 4.99616 26.5659C4.69472 26.8673 4.52536 27.2762 4.52536 27.7025C4.52536 28.1288 4.69471 28.5377 4.99616 28.8391C5.29762 29.1406 5.70647 29.3099 6.13278 29.3099Z" fill="#285A43" stroke="#285A43"/>
<path d="M31.7279 9.02508C32.1542 9.02508 32.563 8.85572 32.8645 8.55428C33.1659 8.25283 33.3353 7.84397 33.3353 7.41766V2.10742C33.3353 1.68111 33.1659 1.27225 32.8645 0.970803C32.563 0.669353 32.1542 0.5 31.7279 0.5C31.3015 0.5 30.8927 0.669353 30.5912 0.970803L30.9448 1.32436L30.5912 0.970803C30.2898 1.27225 30.1204 1.68111 30.1204 2.10742V7.41766C30.1204 7.84397 30.2898 8.25283 30.5912 8.55428C30.8927 8.85572 31.3015 9.02508 31.7279 9.02508Z" fill="#285A43" stroke="#285A43"/>
<path d="M17.4003 36.356L1.14811 48.4442C0.946997 48.5938 0.783656 48.7884 0.671127 49.0123C0.558591 49.2363 0.499992 49.4834 0.5 49.7341V95.1758C0.5 95.6021 0.669349 96.011 0.970796 96.3125L0.970802 96.3125C1.27225 96.6139 1.68111 96.7833 2.10742 96.7833H61.3483C61.7746 96.7833 62.1834 96.6139 62.4849 96.3125C62.7863 96.011 62.9557 95.6022 62.9557 95.1758V49.7341C62.9557 49.4834 62.8971 49.2363 62.7846 49.0123C62.672 48.7884 62.5087 48.5938 62.3076 48.4442L46.0554 36.356C47.5289 33.9201 48.3585 31.1463 48.4619 28.2962C48.571 25.2901 47.8684 22.3101 46.4278 19.6694C44.9872 17.0288 42.8619 14.8249 40.2752 13.2895C37.6885 11.754 34.7359 10.9437 31.7279 10.9437C28.7198 10.9437 25.7672 11.754 23.1805 13.2895C20.5939 14.8249 18.4685 17.0288 17.0279 19.6694C15.5873 22.3101 14.8847 25.2901 14.9938 28.2962C15.0972 31.1463 15.9268 33.9201 17.4003 36.356ZM19.9914 34.4286C18.8151 32.3859 18.1947 30.0667 18.1975 27.7031V27.7022C18.1963 25.6052 18.6825 23.5366 19.6179 21.6596C20.5532 19.7827 21.912 18.1489 23.587 16.8872C25.262 15.6254 27.2074 14.7703 29.2695 14.3893C31.3317 14.0083 33.4542 14.1118 35.4694 14.6918C37.4847 15.2717 39.3376 16.3121 40.8818 17.7309C42.4261 19.1497 43.6194 20.908 44.3676 22.8671C45.1157 24.8261 45.3983 26.9323 45.1929 29.0192C45.0053 30.9263 44.415 32.7696 43.4633 34.4281L32.687 26.4127L32.687 26.4127C32.4097 26.2065 32.0733 26.0951 31.7278 26.0951C31.3822 26.0951 31.0458 26.2065 30.7685 26.4127L30.7685 26.4127L19.9914 34.4286ZM59.7407 93.5684H3.71487V50.5417L31.7279 29.7059L59.7408 50.5417L59.7407 93.5684Z" fill="#285A43" stroke="#285A43"/>
<path d="M18.7333 56.8599H18.7328H17.7405C17.3142 56.8599 16.9054 57.0292 16.6039 57.3307C16.3025 57.6321 16.1331 58.041 16.1331 58.4673L16.1331 59.4596L16.1331 59.4602C16.1377 63.3106 17.6614 67.0036 20.3731 69.7371C22.9683 72.3531 26.451 73.888 30.1204 74.0461V81.1866C25.4828 81.4563 20.9895 82.9149 17.0745 85.4256L17.0742 85.4258C16.7155 85.6563 16.4631 86.0197 16.3724 86.4363C16.2817 86.8528 16.3602 87.2884 16.5906 87.647C16.821 88.0057 17.1844 88.2582 17.601 88.3489C18.0173 88.4395 18.4525 88.3612 18.8111 88.1311C22.6671 85.6629 27.1496 84.3511 31.7279 84.3511C36.3053 84.3511 40.787 85.6623 44.6424 88.1297C44.8194 88.2454 45.0174 88.3251 45.2252 88.3642C45.434 88.4034 45.6485 88.4009 45.8563 88.3568C46.0642 88.3126 46.2612 88.2277 46.436 88.1069C46.6108 87.9861 46.76 87.8319 46.8748 87.6531C46.9896 87.4743 47.0679 87.2745 47.105 87.0653C47.1421 86.8561 47.1374 86.6416 47.0911 86.4342C47.0448 86.2268 46.9579 86.0307 46.8353 85.8571C46.7132 85.6843 46.5582 85.5372 46.3791 85.4244C42.4647 82.9144 37.9722 81.4562 33.3353 81.1866V74.0461C37.0047 73.888 40.4873 72.3531 43.0825 69.7371C45.7942 67.0036 47.3179 63.3106 47.3225 59.4602V59.4596V58.4673C47.3225 58.041 47.1531 57.6321 46.8517 57.3307C46.5502 57.0292 46.1414 56.8599 45.7151 56.8599L44.7228 56.8599L44.7222 56.8599C41.8505 56.8628 39.0431 57.7113 36.6504 59.2994C34.5606 60.6864 32.8679 62.5839 31.7278 64.8045C30.5878 62.5839 28.8951 60.6864 26.8053 59.2994C24.4125 57.7113 21.6051 56.8628 18.7333 56.8599ZM22.6869 67.5082C20.7027 65.5239 19.5243 62.8824 19.3661 60.0929C22.1556 60.2511 24.7972 61.4294 26.7814 63.4137C28.7656 65.3979 29.944 68.0395 30.1022 70.829C27.3127 70.6707 24.6711 69.4924 22.6869 67.5082ZM36.6742 63.4137C38.6585 61.4294 41.3 60.2511 44.0895 60.0929C43.9312 62.8824 42.7529 65.524 40.7686 67.5082C38.7844 69.4924 36.1429 70.6707 33.3533 70.829C33.5116 68.0394 34.6899 65.3979 36.6742 63.4137Z" fill="#285A43" stroke="#285A43"/>
</svg>
